<?xml version="1.0" encoding="UTF-8"?>
<!DOCTYPE svg PUBLIC "-//W3C//DTD SVG 1.1//EN" "http://www.w3.org/Graphics/SVG/1.1/DTD/svg11.dtd">
<svg version="1.1" xmlns="http://www.w3.org/2000/svg" xmlns:xlink="http://www.w3.org/1999/xlink" x="0" y="0" width="55" height="40" viewBox="0, 0, 55, 40">
  <defs>
    <linearGradient id="Gradient_1" gradientUnits="userSpaceOnUse" x1="27.198" y1="7.408" x2="27.046" y2="32.856">
      <stop offset="0" stop-color="#00D3A6"/>
      <stop offset="0.5" stop-color="#00D3A6"/>
      <stop offset="1" stop-color="#00D3A6"/>
    </linearGradient>
  </defs>
  <g id="boiler_icon" transform="translate(0, 0)">
    <g>
      <path d="M11.904,6.933 L43.096,6.933 C47.635,6.933 50.788,13.353 50.788,17.892 L50.788,22.108 C50.788,26.647 47.635,33.067 43.096,33.067 L11.904,33.067 C7.365,33.067 4.212,26.647 4.212,22.108 L4.212,17.892 C4.212,13.353 7.365,6.933 11.904,6.933 z" fill="url(#Gradient_1)"/>
    </g>
    <path d="M26.916,25.628 Q26.036,25.628 25.14,25.572 Q24.244,25.516 23.572,25.34 L23.572,14.572 Q23.924,14.508 24.324,14.452 Q24.724,14.396 25.14,14.364 Q25.556,14.332 25.964,14.316 Q26.372,14.3 26.74,14.3 Q27.748,14.3 28.612,14.452 Q29.476,14.604 30.108,14.956 Q30.74,15.308 31.092,15.884 Q31.444,16.46 31.444,17.308 Q31.444,18.092 31.068,18.652 Q30.692,19.212 30.02,19.548 Q31.028,19.884 31.508,20.54 Q31.988,21.196 31.988,22.204 Q31.988,23.916 30.74,24.772 Q29.492,25.628 26.916,25.628 z M25.556,20.508 L25.556,23.884 Q25.892,23.916 26.276,23.932 Q26.66,23.948 26.98,23.948 Q27.604,23.948 28.14,23.868 Q28.676,23.788 29.068,23.588 Q29.46,23.388 29.692,23.052 Q29.924,22.716 29.924,22.188 Q29.924,21.244 29.236,20.876 Q28.548,20.508 27.332,20.508 z M25.556,18.924 L26.98,18.924 Q28.132,18.924 28.788,18.596 Q29.444,18.268 29.444,17.42 Q29.444,16.62 28.764,16.284 Q28.084,15.948 26.996,15.948 Q26.532,15.948 26.172,15.964 Q25.812,15.98 25.556,16.012 z" fill="#FFFFFF"/>
  </g>
</svg>
