<?xml version="1.0" encoding="UTF-8"?>
<!DOCTYPE svg PUBLIC "-//W3C//DTD SVG 1.1//EN" "http://www.w3.org/Graphics/SVG/1.1/DTD/svg11.dtd">
<svg version="1.1" xmlns="http://www.w3.org/2000/svg" xmlns:xlink="http://www.w3.org/1999/xlink" x="0" y="0" width="55" height="40" viewBox="0, 0, 55, 40">
  <g id="burner_icon" transform="translate(0, 0)">
    <path d="M27.5,35 C19.216,35 12.5,28.284 12.5,20 C12.5,11.716 19.216,5 27.5,5 C35.784,5 42.5,11.716 42.5,20 C42.5,28.284 35.784,35 27.5,35 z" fill="#00D3A6"/>
    <path d="M23.692,25.74 Q22.444,25.74 21.452,25.356 Q20.46,24.972 19.772,24.228 Q19.084,23.484 18.716,22.412 Q18.348,21.34 18.348,19.948 Q18.348,18.556 18.772,17.484 Q19.196,16.412 19.932,15.668 Q20.668,14.924 21.66,14.54 Q22.652,14.156 23.788,14.156 Q24.476,14.156 25.036,14.26 Q25.596,14.364 26.012,14.492 Q26.428,14.62 26.7,14.764 Q26.972,14.908 27.084,14.972 L26.492,16.62 Q26.108,16.38 25.396,16.164 Q24.684,15.948 23.852,15.948 Q23.132,15.948 22.508,16.196 Q21.884,16.444 21.428,16.94 Q20.972,17.436 20.716,18.188 Q20.46,18.94 20.46,19.932 Q20.46,20.812 20.66,21.548 Q20.86,22.284 21.276,22.82 Q21.692,23.356 22.332,23.652 Q22.972,23.948 23.868,23.948 Q24.94,23.948 25.612,23.732 Q26.284,23.516 26.652,23.324 L27.196,24.972 Q27.004,25.1 26.676,25.228 Q26.348,25.356 25.9,25.476 Q25.452,25.596 24.892,25.668 Q24.332,25.74 23.692,25.74 z" fill="#FFFFFF"/>
    <path d="M33.612,25.74 Q32.364,25.74 31.372,25.356 Q30.38,24.972 29.692,24.228 Q29.004,23.484 28.636,22.412 Q28.268,21.34 28.268,19.948 Q28.268,18.556 28.692,17.484 Q29.116,16.412 29.852,15.668 Q30.588,14.924 31.58,14.54 Q32.572,14.156 33.708,14.156 Q34.396,14.156 34.956,14.26 Q35.516,14.364 35.932,14.492 Q36.348,14.62 36.62,14.764 Q36.892,14.908 37.004,14.972 L36.412,16.62 Q36.028,16.38 35.316,16.164 Q34.604,15.948 33.772,15.948 Q33.052,15.948 32.428,16.196 Q31.804,16.444 31.348,16.94 Q30.892,17.436 30.636,18.188 Q30.38,18.94 30.38,19.932 Q30.38,20.812 30.58,21.548 Q30.78,22.284 31.196,22.82 Q31.612,23.356 32.252,23.652 Q32.892,23.948 33.788,23.948 Q34.86,23.948 35.532,23.732 Q36.204,23.516 36.572,23.324 L37.116,24.972 Q36.924,25.1 36.596,25.228 Q36.268,25.356 35.82,25.476 Q35.372,25.596 34.812,25.668 Q34.252,25.74 33.612,25.74 z" fill="#FFFFFF"/>
    <path d="M0.5,20.5 L10.5,20.5" fill-opacity="0" stroke="#AAAAAA" stroke-width="2.5"/>
    <path d="M45.5,20.5 L55.5,20.5" fill-opacity="0" stroke="#AAAAAA" stroke-width="2.5"/>
  </g>
</svg>
