<?xml version="1.0" encoding="UTF-8"?>
<!DOCTYPE svg PUBLIC "-//W3C//DTD SVG 1.1//EN" "http://www.w3.org/Graphics/SVG/1.1/DTD/svg11.dtd">
<svg version="1.1" xmlns="http://www.w3.org/2000/svg" xmlns:xlink="http://www.w3.org/1999/xlink" x="0" y="0" width="55" height="40" viewBox="0, 0, 55, 40">
  <g id="closed_feed_heater_icon" transform="translate(0, 0)">
    <path d="M3.5,0.5 L51.5,0.5 L51.5,39.5 L3.5,39.5 L3.5,0.5 z" fill="#808080"/>
    <path d="M15.165,19.726 C17.267,19.727 18.997,21.131 18.997,22.892 L18.997,30.83 C18.997,31.303 19.499,31.71 20.149,31.71 C20.799,31.71 21.301,31.303 21.301,30.83 L21.301,23.022 C21.301,21.26 23.031,19.856 25.133,19.856 C27.235,19.856 28.965,21.26 28.965,23.022 L28.965,30.959 C28.965,31.433 29.467,31.84 30.117,31.84 C30.767,31.84 31.269,31.433 31.269,30.959 L31.269,23.08 C31.269,21.318 32.999,19.914 35.101,19.914 C37.203,19.914 38.933,21.318 38.933,23.08 L38.933,30.946 C38.933,31.419 39.435,31.826 40.085,31.826 C40.735,31.826 41.237,31.419 41.237,30.946 L41.237,23.066 C41.237,21.305 42.967,19.9 45.069,19.9 C47.171,19.9 48.901,21.305 48.901,23.066 L48.901,27.425 L46.221,27.425 L46.221,23.066 C46.221,22.593 45.719,22.186 45.069,22.186 C44.419,22.186 43.917,22.593 43.917,23.066 L43.917,30.946 C43.917,32.707 42.187,34.112 40.085,34.112 C37.983,34.112 36.253,32.707 36.253,30.946 L36.253,23.08 C36.253,22.606 35.751,22.199 35.101,22.199 C34.451,22.199 33.949,22.606 33.949,23.08 L33.949,30.959 C33.949,32.721 32.219,34.125 30.117,34.125 C28.015,34.125 26.285,32.721 26.285,30.959 L26.285,23.022 C26.285,22.548 25.783,22.141 25.133,22.141 C24.483,22.141 23.981,22.548 23.981,23.022 L23.981,30.83 C23.981,32.591 22.251,33.996 20.149,33.996 C18.047,33.996 16.317,32.591 16.317,30.83 L16.317,22.892 C16.317,22.419 15.815,22.012 15.165,22.012 C14.515,22.012 14.013,22.419 14.013,22.892 L14.013,30.915 C14.013,32.676 12.283,34.08 10.181,34.08 C8.079,34.08 6.349,32.676 6.349,30.915 L6.349,26.265 L9.029,26.265 L9.029,30.915 C9.029,31.388 9.531,31.795 10.181,31.795 C10.831,31.795 11.333,31.388 11.333,30.915 L11.333,22.892 C11.333,21.131 13.063,19.727 15.165,19.726 z" fill="#FFFFFF"/>
    <path d="M51.5,0.5 L51.5,39.5 L3.5,39.5 L3.5,0.5 L51.5,0.5 z M32.875,16.75 L30,20 L27.25,16.625 L24.625,19.25 L20.938,16.25 L17.625,19.5 L13.5,16.438 L12,21 L8.562,20.688 L10,24.25 L6.349,27.25 L11.125,28.5 L9.25,32.5 L13.688,32.75 L15.625,35.125 L19.5,33.125 L22.625,35.25 L25.562,33.5 L28.438,35.875 L31.188,33.625 L34.625,36 L36.188,33.5 L40.188,35.625 L41.375,33 L45.062,34.187 L44.875,31.312 L47.625,29.375 L45.5,26.125 L48.901,23.125 L43.917,22.066 L45.75,18.726 L41,20.375 L39.5,17.125 L36.375,19.375 L32.875,16.75 z" fill="#00D3A6"/>
    <g>
      <path d="M12.381,14.706 Q11.367,14.706 10.561,14.394 Q9.755,14.082 9.196,13.477 Q8.637,12.873 8.338,12.002 Q8.039,11.131 8.039,10 Q8.039,8.869 8.383,7.998 Q8.728,7.127 9.326,6.523 Q9.924,5.918 10.73,5.606 Q11.536,5.294 12.459,5.294 Q13.018,5.294 13.473,5.378 Q13.928,5.463 14.266,5.567 Q14.604,5.671 14.825,5.788 Q15.046,5.905 15.137,5.957 L14.656,7.296 Q14.344,7.101 13.765,6.925 Q13.187,6.75 12.511,6.75 Q11.926,6.75 11.419,6.951 Q10.912,7.153 10.541,7.556 Q10.171,7.959 9.963,8.57 Q9.755,9.181 9.755,9.987 Q9.755,10.702 9.917,11.3 Q10.08,11.898 10.418,12.333 Q10.756,12.769 11.276,13.009 Q11.796,13.25 12.524,13.25 Q13.395,13.25 13.941,13.075 Q14.487,12.899 14.786,12.743 L15.228,14.082 Q15.072,14.186 14.805,14.29 Q14.539,14.394 14.175,14.491 Q13.811,14.589 13.356,14.648 Q12.901,14.706 12.381,14.706 z" fill="#FFFFFF"/>
      <path d="M15.54,10.078 L19.037,10.078 L19.037,11.521 L15.54,11.521 z" fill="#FFFFFF"/>
      <path d="M20.415,14.511 L20.415,5.502 L26.109,5.502 L26.109,6.893 L22.053,6.893 L22.053,9.194 L25.654,9.194 L25.654,10.585 L22.053,10.585 L22.053,14.511 z" fill="#FFFFFF"/>
      <path d="M33.35,6.516 Q33.558,7.218 33.792,7.978 Q34.026,8.739 34.279,9.499 Q34.533,10.26 34.786,10.995 Q35.04,11.729 35.274,12.379 Q35.469,11.677 35.651,10.851 Q35.833,10.026 36.015,9.135 Q36.197,8.245 36.373,7.322 Q36.548,6.399 36.704,5.502 L38.394,5.502 Q37.939,7.946 37.38,10.201 Q36.821,12.457 36.132,14.511 L34.572,14.511 Q33.558,11.885 32.609,8.778 Q32.128,10.351 31.634,11.768 Q31.14,13.185 30.646,14.511 L29.086,14.511 Q28.384,12.457 27.831,10.201 Q27.279,7.946 26.824,5.502 L28.579,5.502 Q28.735,6.386 28.91,7.309 Q29.086,8.232 29.274,9.122 Q29.463,10.013 29.658,10.845 Q29.853,11.677 30.048,12.379 Q30.295,11.716 30.549,10.981 Q30.802,10.247 31.049,9.486 Q31.296,8.726 31.524,7.972 Q31.751,7.218 31.946,6.516 z" fill="#FFFFFF"/>
      <path d="M45.323,5.502 L46.961,5.502 L46.961,14.511 L45.323,14.511 L45.323,10.52 L41.41,10.52 L41.41,14.511 L39.772,14.511 L39.772,5.502 L41.41,5.502 L41.41,9.103 L45.323,9.103 z" fill="#FFFFFF"/>
    </g>
  </g>
</svg>
