<?xml version="1.0" encoding="UTF-8"?>
<!DOCTYPE svg PUBLIC "-//W3C//DTD SVG 1.1//EN" "http://www.w3.org/Graphics/SVG/1.1/DTD/svg11.dtd">
<svg version="1.1" xmlns="http://www.w3.org/2000/svg" xmlns:xlink="http://www.w3.org/1999/xlink" x="0" y="0" width="55" height="40" viewBox="0, 0, 55, 40">
  <defs>
    <linearGradient id="Gradient_1" gradientUnits="userSpaceOnUse" x1="2" y1="21.846" x2="5.32" y2="21.846">
      <stop offset="0" stop-color="#707070"/>
      <stop offset="0.468" stop-color="#999999"/>
      <stop offset="1" stop-color="#3E3E3E"/>
    </linearGradient>
    <linearGradient id="Gradient_2" gradientUnits="userSpaceOnUse" x1="7.667" y1="16.333" x2="7.688" y2="24">
      <stop offset="0" stop-color="#707070"/>
      <stop offset="0.468" stop-color="#999999"/>
      <stop offset="1" stop-color="#3E3E3E"/>
    </linearGradient>
  </defs>
  <g id="compressor_icon" transform="translate(0, 0)">
    <path d="M14,1.5 L52,13.661 L52,25.822 L14,38.5 L14,1.5 z" fill="#00D3A6"/>
    <path d="M32.152,24.54 Q30.904,24.54 29.912,24.156 Q28.92,23.772 28.232,23.028 Q27.544,22.284 27.176,21.212 Q26.808,20.14 26.808,18.748 Q26.808,17.356 27.232,16.284 Q27.656,15.212 28.392,14.468 Q29.128,13.724 30.12,13.34 Q31.112,12.956 32.248,12.956 Q32.936,12.956 33.496,13.06 Q34.056,13.164 34.472,13.292 Q34.888,13.42 35.16,13.564 Q35.432,13.708 35.544,13.772 L34.952,15.42 Q34.568,15.18 33.856,14.964 Q33.144,14.748 32.312,14.748 Q31.592,14.748 30.968,14.996 Q30.344,15.244 29.888,15.74 Q29.432,16.236 29.176,16.988 Q28.92,17.74 28.92,18.732 Q28.92,19.612 29.12,20.348 Q29.32,21.084 29.736,21.62 Q30.152,22.156 30.792,22.452 Q31.432,22.748 32.328,22.748 Q33.4,22.748 34.072,22.532 Q34.744,22.316 35.112,22.124 L35.656,23.772 Q35.464,23.9 35.136,24.028 Q34.808,24.156 34.36,24.276 Q33.912,24.396 33.352,24.468 Q32.792,24.54 32.152,24.54 z" fill="#FFFFFF"/>
    <g>
      <path d="M3.66,23.894 C2.743,23.894 2,22.977 2,21.846 C2,20.715 2.743,19.799 3.66,19.799 C4.577,19.799 5.32,20.715 5.32,21.846 C5.32,22.977 4.577,23.894 3.66,23.894 z" fill="url(#Gradient_1)"/>
      <path d="M3.579,16.118 C11.258,16.09 12.217,16.118 12.217,16.118 L12.217,23.798 C12.217,23.798 7.338,23.769 3.819,23.855 C7.179,20.186 -0.9,18.991 3.579,16.118 z" fill="url(#Gradient_2)"/>
    </g>
  </g>
</svg>
