<?xml version="1.0" encoding="UTF-8"?>
<!DOCTYPE svg PUBLIC "-//W3C//DTD SVG 1.1//EN" "http://www.w3.org/Graphics/SVG/1.1/DTD/svg11.dtd">
<svg version="1.1" xmlns="http://www.w3.org/2000/svg" xmlns:xlink="http://www.w3.org/1999/xlink" x="0" y="0" width="55" height="40" viewBox="0, 0, 55, 40">
  <defs>
    <linearGradient id="Gradient_1" gradientUnits="userSpaceOnUse" x1="15.52" y1="35.792" x2="43.836" y2="17.604">
      <stop offset="0" stop-color="#00D3A6"/>
      <stop offset="1" stop-color="#00A57C"/>
    </linearGradient>
    <linearGradient id="Gradient_2" gradientUnits="userSpaceOnUse" x1="15.52" y1="35.792" x2="43.836" y2="17.604">
      <stop offset="0" stop-color="#00D3A6"/>
      <stop offset="1" stop-color="#00A57C"/>
    </linearGradient>
    <linearGradient id="Gradient_3" gradientUnits="userSpaceOnUse" x1="15.52" y1="35.792" x2="43.836" y2="17.604">
      <stop offset="0" stop-color="#00D3A6"/>
      <stop offset="1" stop-color="#00A57C"/>
    </linearGradient>
    <linearGradient id="Gradient_4" gradientUnits="userSpaceOnUse" x1="15.52" y1="35.792" x2="43.836" y2="17.604">
      <stop offset="0" stop-color="#00D3A6"/>
      <stop offset="1" stop-color="#00A57C"/>
    </linearGradient>
    <linearGradient id="Gradient_5" gradientUnits="userSpaceOnUse" x1="15.52" y1="35.792" x2="43.836" y2="17.604">
      <stop offset="0" stop-color="#00D3A6"/>
      <stop offset="1" stop-color="#00A57C"/>
    </linearGradient>
    <linearGradient id="Gradient_6" gradientUnits="userSpaceOnUse" x1="15.52" y1="35.792" x2="43.836" y2="17.604">
      <stop offset="0" stop-color="#00D3A6"/>
      <stop offset="1" stop-color="#00A57C"/>
    </linearGradient>
    <linearGradient id="Gradient_7" gradientUnits="userSpaceOnUse" x1="15.52" y1="35.792" x2="43.836" y2="17.604">
      <stop offset="0" stop-color="#00D3A6"/>
      <stop offset="1" stop-color="#00A57C"/>
    </linearGradient>
    <linearGradient id="Gradient_8" gradientUnits="userSpaceOnUse" x1="15.52" y1="35.792" x2="43.836" y2="17.604">
      <stop offset="0" stop-color="#00D3A6"/>
      <stop offset="1" stop-color="#00A57C"/>
    </linearGradient>
    <linearGradient id="Gradient_9" gradientUnits="userSpaceOnUse" x1="15.52" y1="35.792" x2="43.836" y2="17.604">
      <stop offset="0" stop-color="#00D3A6"/>
      <stop offset="1" stop-color="#00A57C"/>
    </linearGradient>
    <linearGradient id="Gradient_10" gradientUnits="userSpaceOnUse" x1="15.52" y1="35.792" x2="43.836" y2="17.604">
      <stop offset="0" stop-color="#00D3A6"/>
      <stop offset="1" stop-color="#00A57C"/>
    </linearGradient>
  </defs>
  <g id="condenser_icon" transform="translate(0, 0)">
    <path d="M27.5,38.188 C17.455,38.188 9.312,30.045 9.312,20 C9.312,9.955 17.455,1.813 27.5,1.813 C37.545,1.813 45.688,9.955 45.688,20 C45.688,30.045 37.545,38.188 27.5,38.188 z" fill="#FFFFFF"/>
    <path d="M25.635,38.092 L25.64,38.093 L27.5,38.187 L29.36,38.093 L29.363,38.093 C29.362,38.093 29.361,38.093 29.36,38.093 C28.74,38.125 28.12,38.156 27.5,38.187 C26.88,38.156 26.26,38.125 25.64,38.093 C25.638,38.093 25.636,38.093 25.635,38.092 z" fill="url(#Gradient_1)"/>
    <path d="M9.343,19.399 L9.343,19.399 L9.312,20 C10.017,29.391 14.877,34.877 23.647,37.687 C15.036,36.095 9.735,28.374 9.312,20 L9.343,19.399 z" fill="url(#Gradient_2)"/>
    <path d="M32.91,37.369 C32.909,37.369 32.909,37.37 32.908,37.37 C32.907,37.37 32.906,37.37 32.905,37.371 L32.908,37.37 L32.91,37.369 z" fill="url(#Gradient_3)"/>
    <path d="M25.54,19.673 C29.569,19.782 31.747,20.871 36.975,21.307 C39.601,21.491 42.205,20.939 44.679,20.09 C43.948,29.916 37.304,36.558 27.5,37.187 C18.008,37.188 10.313,29.492 10.313,20 L10.321,19.833 C12.01,20.583 10.984,20.187 13.451,20.871 C16.283,21.198 21.367,19.561 25.54,19.673 z" fill="url(#Gradient_4)"/>
    <path d="M36.481,35.782 C35.966,36.129 36.285,35.943 35.492,36.278 L36.481,35.782 z" fill="url(#Gradient_5)"/>
    <path d="M39.209,33.894 C38.859,34.244 39.124,33.997 38.331,34.533 L39.209,33.894 z" fill="url(#Gradient_6)"/>
    <path d="M42.722,29.809 C41.123,32.179 42.035,31.068 39.974,33.129 C41.825,31.269 40.879,32.35 42.722,29.809 z" fill="url(#Gradient_7)"/>
    <path d="M44.105,27.219 C43.362,28.978 43.786,28.234 42.93,29.501 L44.105,27.219 z" fill="url(#Gradient_8)"/>
    <path d="M45.064,24.453 C44.765,25.923 44.996,25.109 44.257,26.858 L45.064,24.453 z" fill="url(#Gradient_9)"/>
    <path d="M45.594,21.86 L45.204,23.771 C45.687,20.984 45.559,22.245 45.687,20 L45.594,21.86 z" fill="url(#Gradient_10)"/>
    <path d="M27.5,0.312 C38.373,0.313 47.188,9.127 47.187,20 C47.029,28.524 41.61,36.255 33.354,38.802 C32.106,39.188 30.793,39.325 29.513,39.586 L27.5,39.687 L25.487,39.586 C15.215,38.093 8.333,30.302 7.812,20 C7.812,9.127 16.627,0.313 27.5,0.312 z M29.36,38.093 C38.849,36.714 45.207,29.517 45.687,20 C45.688,9.955 37.545,1.813 27.5,1.812 C17.455,1.813 9.312,9.955 9.312,20 C9.312,30.045 17.455,38.188 27.5,38.187 L29.36,38.093 z" fill="#BFBFBF"/>
    <path d="M35.521,20.566 C35.208,20.566 34.955,20.313 34.955,20 C34.955,19.687 35.208,19.434 35.521,19.434 C35.834,19.434 36.087,19.687 36.087,20 C36.087,20.313 35.834,20.566 35.521,20.566 z" fill="#00D3A6"/>
    <path d="M22.333,19.009 C22.214,19.342 21.848,19.515 21.515,19.396 C21.182,19.278 21.008,18.911 21.127,18.578 C21.246,18.245 21.612,18.072 21.945,18.19 C22.278,18.309 22.451,18.676 22.333,19.009 z" fill="#00D3A6"/>
    <path d="M15.288,18.719 C14.678,18.719 14.183,18.224 14.183,17.614 C14.183,17.004 14.678,16.51 15.288,16.51 C15.898,16.51 16.392,17.004 16.392,17.614 C16.392,18.224 15.898,18.719 15.288,18.719 z" fill="#00A57C"/>
    <path d="M22.05,16.15 C21.44,16.15 20.946,15.656 20.946,15.046 C20.946,14.436 21.44,13.941 22.05,13.941 C22.66,13.941 23.155,14.436 23.155,15.046 C23.155,15.656 22.66,16.15 22.05,16.15 z" fill="#00D3A6"/>
    <path d="M27.547,6.241 C27.114,6.241 26.763,5.89 26.763,5.457 C26.763,5.024 27.114,4.673 27.547,4.673 C27.98,4.673 28.331,5.024 28.331,5.457 C28.331,5.89 27.98,6.241 27.547,6.241 z" fill="#00A57C"/>
    <path d="M22.812,9.114 C22.662,9.533 22.201,9.752 21.782,9.602 C21.363,9.453 21.145,8.992 21.294,8.573 C21.444,8.154 21.905,7.936 22.324,8.085 C22.743,8.234 22.961,8.695 22.812,9.114 z" fill="#00A57C"/>
    <path d="M28.572,13.17 C28.361,13.762 27.71,14.071 27.117,13.86 C26.525,13.648 26.217,12.997 26.428,12.405 C26.639,11.813 27.29,11.504 27.883,11.716 C28.475,11.927 28.783,12.578 28.572,13.17 z" fill="#00D3A6"/>
    <path d="M29.284,18.947 C28.512,18.947 27.886,18.321 27.886,17.548 C27.886,16.776 28.512,16.15 29.284,16.15 C30.056,16.15 30.682,16.776 30.682,17.548 C30.682,18.321 30.056,18.947 29.284,18.947 z" fill="#00A57C"/>
    <path d="M29.27,10.273 C29.153,10.602 28.791,10.773 28.463,10.656 C28.134,10.539 27.962,10.177 28.08,9.848 C28.197,9.52 28.559,9.348 28.887,9.466 C29.216,9.583 29.388,9.945 29.27,10.273 z" fill="#00D3A6"/>
    <path d="M34.368,16.717 C33.758,16.717 33.263,16.223 33.263,15.613 C33.263,15.003 33.758,14.508 34.368,14.508 C34.978,14.508 35.472,15.003 35.472,15.613 C35.472,16.223 34.978,16.717 34.368,16.717 z" fill="#00D3A6"/>
    <path d="M34.44,9.767 C34.298,10.165 33.86,10.373 33.462,10.231 C33.065,10.089 32.857,9.651 32.999,9.253 C33.141,8.855 33.579,8.648 33.977,8.79 C34.375,8.932 34.582,9.369 34.44,9.767 z" fill="#00A57C"/>
    <path d="M17.808,13.218 C17.375,13.218 17.024,12.867 17.024,12.433 C17.024,12 17.375,11.649 17.808,11.649 C18.241,11.649 18.592,12 18.592,12.433 C18.592,12.867 18.241,13.218 17.808,13.218 z" fill="#00D3A6"/>
    <path d="M40.032,19.719 C39.599,19.719 39.248,19.368 39.248,18.934 C39.248,18.501 39.599,18.15 40.032,18.15 C40.466,18.15 40.817,18.501 40.817,18.934 C40.817,19.368 40.466,19.719 40.032,19.719 z" fill="#00A57C"/>
    <path d="M38.963,13.58 C38.846,13.909 38.484,14.08 38.155,13.963 C37.827,13.846 37.655,13.484 37.773,13.155 C37.89,12.827 38.251,12.655 38.58,12.773 C38.909,12.89 39.08,13.251 38.963,13.58 z" fill="#00D3A6"/>
  </g>
</svg>
