<?xml version="1.0" encoding="UTF-8"?>
<!DOCTYPE svg PUBLIC "-//W3C//DTD SVG 1.1//EN" "http://www.w3.org/Graphics/SVG/1.1/DTD/svg11.dtd">
<svg version="1.1" xmlns="http://www.w3.org/2000/svg" xmlns:xlink="http://www.w3.org/1999/xlink" x="0" y="0" width="55" height="40" viewBox="0, 0, 55, 40">
  <g id="diffuser_icon" transform="translate(0, 0)">
    <path d="M43.125,1.25 L43.125,38.75 C43.125,38.75 11.875,27.768 11.875,27.768 C11.875,27.768 11.875,12.232 11.875,12.232 L43.125,1.25 z" fill="#00D3A6"/>
    <path d="M26.036,23.836 Q26.212,23.852 26.5,23.86 Q26.788,23.868 27.284,23.868 Q29.316,23.868 30.316,22.836 Q31.316,21.804 31.316,19.948 Q31.316,18.06 30.34,17.052 Q29.364,16.044 27.316,16.044 Q26.42,16.044 26.036,16.092 z M33.428,19.948 Q33.428,21.388 32.98,22.452 Q32.532,23.516 31.708,24.228 Q30.884,24.94 29.724,25.284 Q28.564,25.628 27.156,25.628 Q26.484,25.628 25.636,25.572 Q24.788,25.516 24.02,25.34 L24.02,14.572 Q24.788,14.396 25.652,14.348 Q26.516,14.3 27.188,14.3 Q28.58,14.3 29.732,14.628 Q30.884,14.956 31.708,15.652 Q32.532,16.348 32.98,17.412 Q33.428,18.476 33.428,19.948 z" fill="#FFFFFF"/>
  </g>
</svg>
