<?xml version="1.0" encoding="UTF-8"?>
<!DOCTYPE svg PUBLIC "-//W3C//DTD SVG 1.1//EN" "http://www.w3.org/Graphics/SVG/1.1/DTD/svg11.dtd">
<svg version="1.1" xmlns="http://www.w3.org/2000/svg" xmlns:xlink="http://www.w3.org/1999/xlink" x="0" y="0" width="55" height="40" viewBox="0, 0, 55, 40">
  <defs>
    <linearGradient id="Gradient_1" gradientUnits="userSpaceOnUse" x1="-52" y1="21.846" x2="-48.68" y2="21.846" gradientTransform="matrix(-1, 0, 0, 1, 0, 0)">
      <stop offset="0" stop-color="#3B3B3B"/>
      <stop offset="0.555" stop-color="#6A6A6A"/>
      <stop offset="1" stop-color="#282828"/>
    </linearGradient>
    <linearGradient id="Gradient_2" gradientUnits="userSpaceOnUse" x1="-46" y1="16.2" x2="-46.2" y2="23.4" gradientTransform="matrix(-1, 0, 0, 1, 0, 0)">
      <stop offset="0" stop-color="#5E5E5E"/>
      <stop offset="0.519" stop-color="#8D8D8D"/>
      <stop offset="1" stop-color="#464646"/>
    </linearGradient>
  </defs>
  <g id="gas_turbine_icon" transform="translate(0, 0)">
    <g>
      <path d="M50.34,23.894 C51.257,23.894 52,22.977 52,21.846 C52,20.715 51.257,19.799 50.34,19.799 C49.423,19.799 48.68,20.715 48.68,21.846 C48.68,22.977 49.423,23.894 50.34,23.894 z" fill="url(#Gradient_1)"/>
      <path d="M50.421,16.118 C42.742,16.09 41.783,16.118 41.783,16.118 L41.783,23.798 C41.783,23.798 46.662,23.769 50.181,23.855 C46.821,20.186 54.9,18.991 50.421,16.118 z" fill="url(#Gradient_2)"/>
    </g>
    <path d="M40,1.5 L2,13.661 L2,25.822 L40,38.5 L40,1.5 z" fill="#00D3A6"/>
    <path d="M18.408,15.732 Q16.696,15.732 15.792,16.796 Q14.888,17.86 14.888,19.748 Q14.888,20.644 15.104,21.388 Q15.32,22.132 15.744,22.66 Q16.168,23.188 16.8,23.484 Q17.432,23.78 18.28,23.78 Q18.808,23.78 19.192,23.74 Q19.576,23.7 19.8,23.636 L19.8,19.652 L21.816,19.652 L21.816,24.98 Q21.4,25.14 20.408,25.332 Q19.416,25.524 18.12,25.524 Q16.92,25.524 15.928,25.14 Q14.936,24.756 14.24,24.02 Q13.544,23.284 13.16,22.212 Q12.776,21.14 12.776,19.748 Q12.776,18.356 13.2,17.284 Q13.624,16.212 14.36,15.468 Q15.096,14.724 16.088,14.34 Q17.08,13.956 18.2,13.956 Q18.968,13.956 19.568,14.06 Q20.168,14.164 20.6,14.292 Q21.032,14.42 21.312,14.564 Q21.592,14.708 21.704,14.772 L21.096,16.42 Q20.616,16.132 19.904,15.932 Q19.192,15.732 18.408,15.732 z" fill="#FFFFFF"/>
    <path d="M31.88,14.212 L31.88,15.956 L28.472,15.956 L28.472,25.3 L26.44,25.3 L26.44,15.956 L23.032,15.956 L23.032,14.212 z" fill="#FFFFFF"/>
  </g>
</svg>
