<?xml version="1.0" encoding="UTF-8"?>
<!DOCTYPE svg PUBLIC "-//W3C//DTD SVG 1.1//EN" "http://www.w3.org/Graphics/SVG/1.1/DTD/svg11.dtd">
<svg version="1.1" xmlns="http://www.w3.org/2000/svg" xmlns:xlink="http://www.w3.org/1999/xlink" x="0" y="0" width="55" height="40" viewBox="0, 0, 55, 40">
  <g id="heat_exchanger_icon" transform="translate(0, 0)">
    <g>
      <path d="M4.453,1.562 L50.547,1.562 L50.547,38.438 L4.453,38.438 L4.453,1.562 z" fill="#00D3A6"/>
      <g>
        <path d="M5.276,12.395 L8.832,12.395 L10.593,9.322 L14.313,15.468 L18.034,9.322 L21.754,15.468 L25.475,9.322 L29.195,15.468 L32.916,9.322 L36.636,15.468 L40.357,9.322 L44.077,15.468 L46.116,12.395 L50.76,12.395" fill="#A3A3A3" fill-opacity="0.83"/>
        <path d="M5.276,12.395 L8.832,12.395 L10.593,9.322 L14.313,15.468 L18.034,9.322 L21.754,15.468 L25.475,9.322 L29.195,15.468 L32.916,9.322 L36.636,15.468 L40.357,9.322 L44.077,15.468 L46.116,12.395 L50.76,12.395" fill-opacity="0" stroke="#FFFFFF" stroke-width="2"/>
      </g>
      <g>
        <path d="M5.184,28.497 L9.262,28.497 L11.023,25.424 L14.744,31.57 L18.464,25.424 L22.185,31.57 L25.905,25.424 L29.626,31.57 L33.346,25.424 L37.067,31.57 L40.787,25.424 L44.508,31.57 L46.546,28.497 L50.699,28.497" fill="#A3A3A3" fill-opacity="0.83"/>
        <path d="M5.184,28.497 L9.262,28.497 L11.023,25.424 L14.744,31.57 L18.464,25.424 L22.185,31.57 L25.905,25.424 L29.626,31.57 L33.346,25.424 L37.067,31.57 L40.787,25.424 L44.508,31.57 L46.546,28.497 L50.699,28.497" fill-opacity="0" stroke="#FFFFFF" stroke-width="2"/>
      </g>
    </g>
  </g>
</svg>
