<?xml version="1.0" encoding="UTF-8"?>
<!DOCTYPE svg PUBLIC "-//W3C//DTD SVG 1.1//EN" "http://www.w3.org/Graphics/SVG/1.1/DTD/svg11.dtd">
<svg version="1.1" xmlns="http://www.w3.org/2000/svg" xmlns:xlink="http://www.w3.org/1999/xlink" x="0" y="0" width="55" height="40" viewBox="0, 0, 55, 40">
  <g id="intercooler_icon" transform="translate(0, 0)">
    <path d="M28,18.205 L32.154,25.801 C32.912,27.188 34.905,27.188 35.663,25.801 L37.817,21.862 L37.817,31.8 C34.833,34.218 31.266,35.162 27.5,35.353 C24.141,35.363 20.951,34.344 18.183,32.475 L18.183,21.862 L20.337,25.801 C21.095,27.188 23.088,27.188 23.846,25.801 L28,18.205 z" fill="#00D3A6"/>
    <path d="M39.752,13.036 C40.411,13.092 40.712,13.418 40.817,14.037 L40.817,28.847 C40.125,29.872 40.687,29.084 38.817,30.954 L38.817,17.949 L34.786,25.321 C34.407,26.015 33.41,26.015 33.031,25.321 L28,16.121 L22.969,25.321 C22.59,26.015 21.593,26.015 21.214,25.321 L17.183,17.949 L17.183,31.799 C16.111,31.076 16.842,31.613 15.183,29.954 L15.183,14.037 C15.183,13.001 16.564,12.648 17.06,13.557 L22.091,22.757 L27.122,13.557 C27.502,12.863 28.498,12.863 28.877,13.557 L33.908,22.757 L38.939,13.557 C39.294,13.108 39.052,13.319 39.752,13.036 z" fill="#00D3A6"/>
    <path d="M27.5,1.417 C36.871,1.417 44.468,9.014 44.468,18.385 C44.438,21.569 43.606,24.716 41.817,27.366 L41.817,14.037 L41.803,13.869 C41.62,12.791 40.942,12.133 39.835,12.04 C39.68,12.027 39.523,12.051 39.378,12.109 C39.24,12.165 38.855,12.292 38.739,12.355 C38.566,12.449 38.452,12.557 38.336,12.703 C38.316,12.727 38.201,12.878 38.155,12.937 L38.062,13.077 L33.908,20.673 L29.755,13.077 C28.996,11.69 27.004,11.69 26.245,13.077 L22.091,20.673 L17.938,13.077 C17.229,12.179 17.714,12.601 16.313,12.036 C15.023,12.366 14.32,12.515 14.183,14.037 L14.183,28.847 C11.714,25.816 10.726,22.22 10.532,18.385 C10.532,9.014 18.129,1.417 27.5,1.417 z" fill="#00D3A6"/>
    <path d="M39.752,13.036 C40.411,13.092 40.712,13.418 40.817,14.037 L40.817,40.25 C40.817,40.802 40.369,41.25 39.817,41.25 C39.265,41.25 38.817,40.802 38.817,40.25 L38.817,17.95 L34.786,25.321 C34.407,26.015 33.41,26.015 33.031,25.321 L28,16.121 L22.969,25.321 C22.59,26.015 21.593,26.015 21.214,25.321 L17.183,17.95 L17.183,40.25 C17.183,40.802 16.735,41.25 16.183,41.25 C15.631,41.25 15.183,40.802 15.183,40.25 L15.183,14.037 C15.183,13.001 16.564,12.648 17.06,13.557 L22.091,22.757 L27.123,13.557 C27.502,12.863 28.498,12.863 28.877,13.557 L33.908,22.757 L38.94,13.557 C39.294,13.108 39.052,13.319 39.752,13.036 z" fill="#6A6A6A"/>
  </g>
</svg>
