<?xml version="1.0" encoding="UTF-8"?>
<!DOCTYPE svg PUBLIC "-//W3C//DTD SVG 1.1//EN" "http://www.w3.org/Graphics/SVG/1.1/DTD/svg11.dtd">
<svg version="1.1" xmlns="http://www.w3.org/2000/svg" xmlns:xlink="http://www.w3.org/1999/xlink" x="0" y="0" width="55" height="40" viewBox="0, 0, 55, 40">
  <g id="mixing_chamber_icon" transform="translate(0, 0)">
    <path d="M3.5,0.5 L51.5,0.5 L51.5,39.5 L3.5,39.5 L3.5,0.5 z" fill="#00D3A6"/>
    <path d="M10.158,9.991 Q10.444,10.485 10.795,11.2 Q11.146,11.915 11.51,12.701 Q11.874,13.488 12.231,14.3 Q12.589,15.113 12.888,15.802 Q13.187,15.113 13.538,14.3 Q13.889,13.488 14.253,12.701 Q14.617,11.915 14.968,11.2 Q15.319,10.485 15.605,9.991 L17.087,9.991 Q17.204,10.979 17.308,12.091 Q17.412,13.202 17.497,14.366 Q17.581,15.529 17.653,16.705 Q17.724,17.882 17.776,19 L16.164,19 Q16.112,17.427 16.04,15.763 Q15.969,14.099 15.826,12.539 Q15.683,12.838 15.488,13.254 Q15.293,13.67 15.072,14.158 Q14.851,14.645 14.623,15.165 Q14.396,15.685 14.181,16.173 Q13.967,16.66 13.785,17.083 Q13.603,17.505 13.473,17.804 L12.251,17.804 Q12.121,17.505 11.939,17.076 Q11.757,16.647 11.542,16.16 Q11.328,15.672 11.1,15.152 Q10.873,14.632 10.652,14.151 Q10.431,13.67 10.236,13.248 Q10.041,12.825 9.898,12.539 Q9.755,14.099 9.683,15.763 Q9.612,17.427 9.56,19 L7.948,19 Q8,17.882 8.071,16.686 Q8.143,15.49 8.227,14.314 Q8.312,13.137 8.416,12.032 Q8.52,10.927 8.637,9.991 z" fill="#FFFFFF"/>
    <path d="M21.195,19 L19.622,19 L19.622,12.201 L21.195,12.201 z M21.364,10.212 Q21.364,10.654 21.078,10.914 Q20.792,11.174 20.402,11.174 Q19.999,11.174 19.713,10.914 Q19.427,10.654 19.427,10.212 Q19.427,9.757 19.713,9.497 Q19.999,9.237 20.402,9.237 Q20.792,9.237 21.078,9.497 Q21.364,9.757 21.364,10.212 z" fill="#FFFFFF"/>
    <path d="M25.641,14.424 L27.084,12.201 L28.735,12.201 L26.499,15.412 Q27.201,16.322 27.845,17.251 Q28.488,18.181 28.904,19 L27.201,19 Q27.084,18.753 26.896,18.434 Q26.707,18.116 26.493,17.771 Q26.278,17.427 26.044,17.089 Q25.81,16.751 25.589,16.452 Q25.134,17.037 24.699,17.746 Q24.263,18.454 23.977,19 L22.365,19 Q22.56,18.61 22.833,18.168 Q23.106,17.726 23.418,17.264 Q23.73,16.803 24.062,16.341 Q24.393,15.88 24.718,15.464 L22.469,12.201 L24.198,12.201 z" fill="#FFFFFF"/>
    <path d="M31.66,19 L30.087,19 L30.087,12.201 L31.66,12.201 z M31.829,10.212 Q31.829,10.654 31.543,10.914 Q31.257,11.174 30.867,11.174 Q30.464,11.174 30.178,10.914 Q29.892,10.654 29.892,10.212 Q29.892,9.757 30.178,9.497 Q30.464,9.237 30.867,9.237 Q31.257,9.237 31.543,9.497 Q31.829,9.757 31.829,10.212 z" fill="#FFFFFF"/>
    <path d="M33.662,12.422 Q34.117,12.292 34.845,12.175 Q35.573,12.058 36.457,12.058 Q37.289,12.058 37.848,12.285 Q38.407,12.513 38.739,12.922 Q39.07,13.332 39.207,13.91 Q39.343,14.489 39.343,15.178 L39.343,19 L37.77,19 L37.77,15.425 Q37.77,14.879 37.699,14.495 Q37.627,14.112 37.465,13.872 Q37.302,13.631 37.023,13.521 Q36.743,13.41 36.34,13.41 Q36.041,13.41 35.716,13.449 Q35.391,13.488 35.235,13.514 L35.235,19 L33.662,19 z" fill="#FFFFFF"/>
    <path d="M42.502,15.425 Q42.502,16.426 42.938,16.888 Q43.373,17.349 44.062,17.349 Q44.439,17.349 44.771,17.245 Q45.102,17.141 45.31,16.998 L45.31,13.475 Q45.141,13.436 44.894,13.404 Q44.647,13.371 44.27,13.371 Q43.412,13.371 42.957,13.937 Q42.502,14.502 42.502,15.425 z M46.883,18.311 Q46.883,19.936 46.057,20.69 Q45.232,21.444 43.529,21.444 Q42.905,21.444 42.313,21.34 Q41.722,21.236 41.241,21.067 L41.527,19.728 Q41.93,19.897 42.444,20.001 Q42.957,20.105 43.555,20.105 Q44.504,20.105 44.907,19.715 Q45.31,19.325 45.31,18.558 L45.31,18.298 Q45.076,18.415 44.692,18.532 Q44.309,18.649 43.815,18.649 Q43.165,18.649 42.625,18.441 Q42.086,18.233 41.702,17.83 Q41.319,17.427 41.104,16.823 Q40.89,16.218 40.89,15.425 Q40.89,14.684 41.118,14.06 Q41.345,13.436 41.78,12.994 Q42.216,12.552 42.84,12.305 Q43.464,12.058 44.257,12.058 Q45.024,12.058 45.713,12.175 Q46.402,12.292 46.883,12.422 z" fill="#FFFFFF"/>
    <path d="M10.465,30.15 Q9.685,30.15 9.065,29.91 Q8.445,29.67 8.015,29.205 Q7.585,28.74 7.355,28.07 Q7.125,27.4 7.125,26.53 Q7.125,25.66 7.39,24.99 Q7.655,24.32 8.115,23.855 Q8.575,23.39 9.195,23.15 Q9.815,22.91 10.525,22.91 Q10.955,22.91 11.305,22.975 Q11.655,23.04 11.915,23.12 Q12.175,23.2 12.345,23.29 Q12.515,23.38 12.585,23.42 L12.215,24.45 Q11.975,24.3 11.53,24.165 Q11.085,24.03 10.565,24.03 Q10.115,24.03 9.725,24.185 Q9.335,24.34 9.05,24.65 Q8.765,24.96 8.605,25.43 Q8.445,25.9 8.445,26.52 Q8.445,27.07 8.57,27.53 Q8.695,27.99 8.955,28.325 Q9.215,28.66 9.615,28.845 Q10.015,29.03 10.575,29.03 Q11.245,29.03 11.665,28.895 Q12.085,28.76 12.315,28.64 L12.655,29.67 Q12.535,29.75 12.33,29.83 Q12.125,29.91 11.845,29.985 Q11.565,30.06 11.215,30.105 Q10.865,30.15 10.465,30.15 z" fill="#FFFFFF"/>
    <path d="M13.705,30 L13.705,22.44 L14.915,22.24 L14.915,24.83 Q15.115,24.76 15.38,24.71 Q15.645,24.66 15.905,24.66 Q16.535,24.66 16.95,24.835 Q17.365,25.01 17.615,25.325 Q17.865,25.64 17.97,26.08 Q18.075,26.52 18.075,27.06 L18.075,30 L16.865,30 L16.865,27.25 Q16.865,26.83 16.81,26.535 Q16.755,26.24 16.63,26.055 Q16.505,25.87 16.295,25.785 Q16.085,25.7 15.775,25.7 Q15.535,25.7 15.285,25.75 Q15.035,25.8 14.915,25.84 L14.915,30 z" fill="#FFFFFF"/>
    <path d="M21.365,29.15 Q21.925,29.15 22.215,29.09 L22.215,27.75 Q22.115,27.72 21.925,27.69 Q21.735,27.66 21.505,27.66 Q21.305,27.66 21.1,27.69 Q20.895,27.72 20.73,27.8 Q20.565,27.88 20.465,28.025 Q20.365,28.17 20.365,28.39 Q20.365,28.82 20.635,28.985 Q20.905,29.15 21.365,29.15 z M21.265,24.64 Q21.865,24.64 22.275,24.79 Q22.685,24.94 22.93,25.21 Q23.175,25.48 23.28,25.865 Q23.385,26.25 23.385,26.71 L23.385,29.88 Q23.105,29.94 22.54,30.025 Q21.975,30.11 21.265,30.11 Q20.795,30.11 20.405,30.02 Q20.015,29.93 19.74,29.73 Q19.465,29.53 19.31,29.21 Q19.155,28.89 19.155,28.42 Q19.155,27.97 19.33,27.66 Q19.505,27.35 19.805,27.155 Q20.105,26.96 20.5,26.875 Q20.895,26.79 21.325,26.79 Q21.525,26.79 21.745,26.815 Q21.965,26.84 22.215,26.9 L22.215,26.7 Q22.215,26.49 22.165,26.3 Q22.115,26.11 21.99,25.965 Q21.865,25.82 21.66,25.74 Q21.455,25.66 21.145,25.66 Q20.725,25.66 20.375,25.72 Q20.025,25.78 19.805,25.86 L19.655,24.88 Q19.885,24.8 20.325,24.72 Q20.765,24.64 21.265,24.64 z" fill="#FFFFFF"/>
    <path d="M27.845,27.25 Q27.845,26.43 27.64,26.065 Q27.435,25.7 26.875,25.7 Q26.675,25.7 26.435,25.73 Q26.195,25.76 26.075,25.78 L26.075,30 L24.865,30 L24.865,24.94 Q25.215,24.84 25.78,24.75 Q26.345,24.66 26.975,24.66 Q27.515,24.66 27.86,24.8 Q28.205,24.94 28.435,25.17 Q28.545,25.09 28.715,25 Q28.885,24.91 29.095,24.835 Q29.305,24.76 29.54,24.71 Q29.775,24.66 30.015,24.66 Q30.625,24.66 31.02,24.835 Q31.415,25.01 31.64,25.325 Q31.865,25.64 31.95,26.085 Q32.035,26.53 32.035,27.06 L32.035,30 L30.825,30 L30.825,27.25 Q30.825,26.43 30.625,26.065 Q30.425,25.7 29.855,25.7 Q29.565,25.7 29.305,25.795 Q29.045,25.89 28.915,25.98 Q28.995,26.23 29.025,26.51 Q29.055,26.79 29.055,27.11 L29.055,30 L27.845,30 z" fill="#FFFFFF"/>
    <path d="M36.985,27.37 Q36.985,26.6 36.68,26.15 Q36.375,25.7 35.715,25.7 Q35.415,25.7 35.15,25.79 Q34.885,25.88 34.725,25.99 L34.725,29 Q34.855,29.03 35.06,29.055 Q35.265,29.08 35.555,29.08 Q36.225,29.08 36.605,28.625 Q36.985,28.17 36.985,27.37 z M38.225,27.39 Q38.225,28.02 38.04,28.525 Q37.855,29.03 37.51,29.39 Q37.165,29.75 36.675,29.94 Q36.185,30.13 35.565,30.13 Q34.965,30.13 34.42,30.04 Q33.875,29.95 33.515,29.84 L33.515,22.44 L34.725,22.24 L34.725,24.95 Q34.935,24.84 35.24,24.75 Q35.545,24.66 35.915,24.66 Q36.465,24.66 36.9,24.855 Q37.335,25.05 37.625,25.41 Q37.915,25.77 38.07,26.275 Q38.225,26.78 38.225,27.39 z" fill="#FFFFFF"/>
    <path d="M39.185,27.41 Q39.185,26.72 39.39,26.2 Q39.595,25.68 39.935,25.335 Q40.275,24.99 40.715,24.815 Q41.155,24.64 41.615,24.64 Q42.695,24.64 43.3,25.31 Q43.905,25.98 43.905,27.31 Q43.905,27.41 43.9,27.535 Q43.895,27.66 43.885,27.76 L40.435,27.76 Q40.485,28.39 40.88,28.735 Q41.275,29.08 42.025,29.08 Q42.465,29.08 42.83,29 Q43.195,28.92 43.405,28.83 L43.565,29.82 Q43.465,29.87 43.29,29.925 Q43.115,29.98 42.89,30.025 Q42.665,30.07 42.405,30.1 Q42.145,30.13 41.875,30.13 Q41.185,30.13 40.675,29.925 Q40.165,29.72 39.835,29.355 Q39.505,28.99 39.345,28.495 Q39.185,28 39.185,27.41 z M42.695,26.87 Q42.695,26.62 42.625,26.395 Q42.555,26.17 42.42,26.005 Q42.285,25.84 42.09,25.745 Q41.895,25.65 41.625,25.65 Q41.345,25.65 41.135,25.755 Q40.925,25.86 40.78,26.03 Q40.635,26.2 40.555,26.42 Q40.475,26.64 40.445,26.87 z" fill="#FFFFFF"/>
    <path d="M48.165,25.86 Q48.015,25.81 47.75,25.755 Q47.485,25.7 47.135,25.7 Q46.935,25.7 46.71,25.74 Q46.485,25.78 46.395,25.81 L46.395,30 L45.185,30 L45.185,25.02 Q45.535,24.89 46.06,24.775 Q46.585,24.66 47.225,24.66 Q47.345,24.66 47.505,24.675 Q47.665,24.69 47.825,24.715 Q47.985,24.74 48.135,24.775 Q48.285,24.81 48.375,24.84 z" fill="#FFFFFF"/>
  </g>
</svg>
