<?xml version="1.0" encoding="UTF-8"?>
<!DOCTYPE svg PUBLIC "-//W3C//DTD SVG 1.1//EN" "http://www.w3.org/Graphics/SVG/1.1/DTD/svg11.dtd">
<svg version="1.1" xmlns="http://www.w3.org/2000/svg" xmlns:xlink="http://www.w3.org/1999/xlink" x="0" y="0" width="55" height="40" viewBox="0, 0, 55, 40">
  <g id="nozzle_icon" transform="translate(0, 0)">
    <path d="M11.875,1.25 L11.875,38.75 C11.875,38.75 43.125,27.768 43.125,27.768 C43.125,27.768 43.125,12.232 43.125,12.232 L11.875,1.25 z" fill="#00D3A6"/>
    <path d="M30.38,25.5 Q29.836,24.588 29.164,23.54 Q28.492,22.492 27.772,21.428 Q27.052,20.364 26.308,19.364 Q25.564,18.364 24.892,17.564 L24.892,25.5 L22.908,25.5 L22.908,14.412 L24.556,14.412 Q25.196,15.084 25.932,16.004 Q26.668,16.924 27.412,17.916 Q28.156,18.908 28.852,19.908 Q29.548,20.908 30.092,21.772 L30.092,14.412 L32.092,14.412 L32.092,25.5 z" fill="#FFFFFF"/>
  </g>
</svg>
