<?xml version="1.0" encoding="UTF-8"?>
<!DOCTYPE svg PUBLIC "-//W3C//DTD SVG 1.1//EN" "http://www.w3.org/Graphics/SVG/1.1/DTD/svg11.dtd">
<svg version="1.1" xmlns="http://www.w3.org/2000/svg" xmlns:xlink="http://www.w3.org/1999/xlink" x="0" y="0" width="55" height="40" viewBox="0, 0, 55, 40">
  <g id="open_feed_heater_icon" transform="translate(0, 0)">
    <path d="M3.5,0.5 L51.5,0.5 L51.5,39.5 L3.5,39.5 L3.5,0.5 z" fill="#00D3A6"/>
    <g>
      <path d="M8.617,20 Q8.617,20.741 8.799,21.346 Q8.981,21.95 9.326,22.372 Q9.67,22.795 10.164,23.029 Q10.658,23.263 11.282,23.263 Q11.893,23.263 12.387,23.029 Q12.881,22.795 13.226,22.372 Q13.57,21.95 13.752,21.346 Q13.934,20.741 13.934,20 Q13.934,19.259 13.752,18.654 Q13.57,18.05 13.226,17.628 Q12.881,17.205 12.387,16.971 Q11.893,16.737 11.282,16.737 Q10.658,16.737 10.164,16.971 Q9.67,17.205 9.326,17.634 Q8.981,18.063 8.799,18.661 Q8.617,19.259 8.617,20 z M15.65,20 Q15.65,21.157 15.306,22.041 Q14.961,22.925 14.37,23.517 Q13.778,24.108 12.985,24.407 Q12.192,24.706 11.295,24.706 Q10.398,24.706 9.599,24.407 Q8.799,24.108 8.208,23.517 Q7.616,22.925 7.265,22.041 Q6.914,21.157 6.914,20 Q6.914,18.843 7.265,17.965 Q7.616,17.088 8.221,16.49 Q8.825,15.892 9.618,15.593 Q10.411,15.294 11.295,15.294 Q12.179,15.294 12.972,15.593 Q13.765,15.892 14.357,16.49 Q14.948,17.088 15.299,17.965 Q15.65,18.843 15.65,20 z" fill="#FFFFFF"/>
      <path d="M16.664,20.078 L20.161,20.078 L20.161,21.521 L16.664,21.521 z" fill="#FFFFFF"/>
      <path d="M21.539,24.511 L21.539,15.502 L27.233,15.502 L27.233,16.893 L23.177,16.893 L23.177,19.194 L26.778,19.194 L26.778,20.585 L23.177,20.585 L23.177,24.511 z" fill="#FFFFFF"/>
      <path d="M34.474,16.516 Q34.682,17.218 34.917,17.979 Q35.151,18.739 35.404,19.5 Q35.658,20.26 35.911,20.994 Q36.165,21.729 36.398,22.379 Q36.593,21.677 36.776,20.851 Q36.958,20.026 37.139,19.135 Q37.321,18.245 37.497,17.322 Q37.673,16.399 37.828,15.502 L39.519,15.502 Q39.063,17.946 38.505,20.201 Q37.945,22.457 37.257,24.511 L35.696,24.511 Q34.682,21.885 33.734,18.778 Q33.252,20.351 32.758,21.768 Q32.264,23.185 31.771,24.511 L30.211,24.511 Q29.508,22.457 28.956,20.201 Q28.403,17.946 27.948,15.502 L29.703,15.502 Q29.859,16.386 30.035,17.309 Q30.211,18.232 30.399,19.122 Q30.587,20.013 30.782,20.845 Q30.977,21.677 31.173,22.379 Q31.42,21.716 31.673,20.982 Q31.927,20.247 32.174,19.486 Q32.42,18.726 32.648,17.972 Q32.875,17.218 33.07,16.516 z" fill="#FFFFFF"/>
      <path d="M46.448,15.502 L48.086,15.502 L48.086,24.511 L46.448,24.511 L46.448,20.52 L42.535,20.52 L42.535,24.511 L40.896,24.511 L40.896,15.502 L42.535,15.502 L42.535,19.103 L46.448,19.103 z" fill="#FFFFFF"/>
    </g>
  </g>
</svg>
