<?xml version="1.0" encoding="UTF-8"?>
<!DOCTYPE svg PUBLIC "-//W3C//DTD SVG 1.1//EN" "http://www.w3.org/Graphics/SVG/1.1/DTD/svg11.dtd">
<svg version="1.1" xmlns="http://www.w3.org/2000/svg" xmlns:xlink="http://www.w3.org/1999/xlink" x="0" y="0" width="55" height="40" viewBox="0, 0, 55, 40">
  <g id="pump_icon" transform="translate(0, 0)">
    <g>
      <path d="M27.681,4.673 C32.496,6.45 35.559,10.413 37.488,14.981 L50.703,14.981 L50.703,4.673 L27.681,4.673 z" fill="#00D3A6"/>
      <path d="M20.896,4.682 L20.896,14.981 L35.867,14.981 C33.447,8.664 27.496,5.015 20.896,4.682 z" fill="#00D3A6"/>
      <path d="M20.71,37.498 C29.774,37.498 37.122,30.15 37.122,21.085 C37.122,12.021 29.774,4.673 20.71,4.673 C11.645,4.673 4.297,12.021 4.297,21.085 C4.297,30.15 11.645,37.498 20.71,37.498 z" fill="#00D3A6"/>
      <g>
        <path d="M18.316,21.076 C18.316,21.076 8.867,21.157 6.622,20.322 C5.055,19.739 6.166,16.762 8.344,16.14 C9.723,15.745 11.46,15.994 13.232,16.673 C15.321,17.473 17.504,19.112 18.007,19.568 C18.51,20.023 19.07,20.802 18.316,21.076 z" fill="#7BEDD5"/>
        <path d="M23.103,21.094 C23.103,21.094 32.553,21.014 34.797,21.848 C36.364,22.431 35.253,25.409 33.075,26.031 C31.696,26.425 29.959,26.176 28.187,25.498 C26.098,24.698 23.915,23.058 23.412,22.603 C22.909,22.147 22.349,21.368 23.103,21.094 z" fill="#7BEDD5"/>
        <path d="M19.52,19.008 C19.52,19.008 14.726,10.865 14.327,8.504 C14.048,6.855 17.182,6.329 18.81,7.903 C19.841,8.901 20.494,10.529 20.792,12.403 C21.144,14.612 20.816,17.323 20.673,17.986 C20.53,18.649 20.135,19.524 19.52,19.008 z" fill="#7BEDD5"/>
        <path d="M21.899,23.162 C21.899,23.162 26.693,31.306 27.092,33.667 C27.371,35.315 24.237,35.842 22.609,34.267 C21.578,33.27 20.925,31.641 20.627,29.767 C20.275,27.558 20.603,24.847 20.746,24.184 C20.889,23.521 21.284,22.646 21.899,23.162 z" fill="#7BEDD5"/>
        <path d="M21.914,19.017 C21.914,19.017 26.569,10.793 28.414,9.267 C29.702,8.201 31.725,10.652 31.175,12.849 C30.827,14.241 29.743,15.62 28.269,16.816 C26.532,18.225 24.021,19.296 23.375,19.504 C22.729,19.712 21.774,19.807 21.914,19.017 z" fill="#7BEDD5"/>
        <path d="M19.505,23.154 C19.505,23.154 14.85,31.377 13.005,32.903 C11.717,33.969 9.694,31.518 10.244,29.321 C10.592,27.93 11.676,26.55 13.15,25.355 C14.887,23.946 17.398,22.874 18.044,22.667 C18.69,22.459 19.645,22.363 19.505,23.154 z" fill="#7BEDD5"/>
      </g>
    </g>
  </g>
</svg>
