<?xml version="1.0" encoding="UTF-8"?>
<!DOCTYPE svg PUBLIC "-//W3C//DTD SVG 1.1//EN" "http://www.w3.org/Graphics/SVG/1.1/DTD/svg11.dtd">
<svg version="1.1" xmlns="http://www.w3.org/2000/svg" xmlns:xlink="http://www.w3.org/1999/xlink" x="0" y="0" width="55" height="40" viewBox="0, 0, 55, 40">
  <defs>
    <linearGradient id="Gradient_1" gradientUnits="userSpaceOnUse" x1="-52" y1="21.846" x2="-48.68" y2="21.846" gradientTransform="matrix(-1, 0, 0, 1, 0, 0)">
      <stop offset="0" stop-color="#3B3B3B"/>
      <stop offset="0.555" stop-color="#6A6A6A"/>
      <stop offset="1" stop-color="#282828"/>
    </linearGradient>
    <linearGradient id="Gradient_2" gradientUnits="userSpaceOnUse" x1="-46" y1="16.2" x2="-46.2" y2="23.4" gradientTransform="matrix(-1, 0, 0, 1, 0, 0)">
      <stop offset="0" stop-color="#5E5E5E"/>
      <stop offset="0.519" stop-color="#8D8D8D"/>
      <stop offset="1" stop-color="#464646"/>
    </linearGradient>
  </defs>
  <g id="steam_turbine_icon" transform="translate(0, 0)">
    <g>
      <path d="M50.34,23.894 C51.257,23.894 52,22.977 52,21.846 C52,20.715 51.257,19.799 50.34,19.799 C49.423,19.799 48.68,20.715 48.68,21.846 C48.68,22.977 49.423,23.894 50.34,23.894 z" fill="url(#Gradient_1)"/>
      <path d="M50.421,16.118 C42.742,16.09 41.783,16.118 41.783,16.118 L41.783,23.798 C41.783,23.798 46.662,23.769 50.181,23.855 C46.821,20.186 54.9,18.991 50.421,16.118 z" fill="url(#Gradient_2)"/>
    </g>
    <path d="M40,1.5 L2,13.661 L2,25.822 L40,38.5 L40,1.5 z" fill="#00D3A6"/>
    <path d="M17.912,23.796 Q19,23.796 19.496,23.428 Q19.992,23.06 19.992,22.388 Q19.992,21.988 19.824,21.7 Q19.656,21.412 19.344,21.18 Q19.032,20.948 18.584,20.748 Q18.136,20.548 17.56,20.356 Q16.984,20.148 16.448,19.9 Q15.912,19.652 15.504,19.284 Q15.096,18.916 14.848,18.404 Q14.6,17.892 14.6,17.172 Q14.6,15.668 15.64,14.812 Q16.68,13.956 18.472,13.956 Q19.512,13.956 20.32,14.188 Q21.128,14.42 21.592,14.692 L20.968,16.324 Q20.424,16.02 19.776,15.86 Q19.128,15.7 18.44,15.7 Q17.624,15.7 17.168,16.036 Q16.712,16.372 16.712,16.98 Q16.712,17.348 16.864,17.612 Q17.016,17.876 17.296,18.084 Q17.576,18.292 17.952,18.468 Q18.328,18.644 18.776,18.804 Q19.56,19.092 20.176,19.388 Q20.792,19.684 21.216,20.092 Q21.64,20.5 21.864,21.052 Q22.088,21.604 22.088,22.388 Q22.088,23.892 21.024,24.716 Q19.96,25.54 17.912,25.54 Q17.224,25.54 16.656,25.452 Q16.088,25.364 15.648,25.236 Q15.208,25.108 14.888,24.972 Q14.568,24.836 14.376,24.724 L14.968,23.076 Q15.4,23.316 16.136,23.556 Q16.872,23.796 17.912,23.796 z" fill="#FFFFFF"/>
    <path d="M31.592,14.212 L31.592,15.956 L28.184,15.956 L28.184,25.3 L26.152,25.3 L26.152,15.956 L22.744,15.956 L22.744,14.212 z" fill="#FFFFFF"/>
  </g>
</svg>
